Coordinates
version=1
nRows=13
nColumns=40
inDegrees=yes

Units are S.I. units (second, meters, Newtons, ...)
Angles are in degrees.

endheader
time	pelvis_tilt	pelvis_list	pelvis_rotation	pelvis_tx	pelvis_ty	pelvis_tz	hip_flexion_r	hip_adduction_r	hip_rotation_r	knee_angle_r	knee_angle_r_beta	ankle_angle_r	subtalar_angle_r	mtp_angle_r	hip_flexion_l	hip_adduction_l	hip_rotation_l	knee_angle_l	knee_angle_l_beta	ankle_angle_l	subtalar_angle_l	mtp_angle_l	lumbar_extension	lumbar_bending	lumbar_rotation	arm_flex_r	arm_add_r	arm_rot_r	elbow_flex_r	pro_sup_r	wrist_flex_r	wrist_dev_r	arm_flex_l	arm_add_l	arm_rot_l	elbow_flex_l	pro_sup_l	wrist_flex_l	wrist_dev_l
      2.82000000	     -2.44703295	     -2.26463886	      6.85636286	      0.30927333	      0.88090382	     -1.01914481	     26.09732108	     -3.16770908	    -20.28142695	    -21.69037166	     -0.37856840	     -2.27591077	     -8.17061025	      4.81384140	     -1.18526220	      5.24983984	      7.20917468	    -29.27530198	     -0.51095041	     12.68878372	     -0.56103460	     -9.33074535	     -2.10108128	      0.61135379	     -9.29305409	     -1.86567815	     -6.57052553	    -12.15677275	     19.82345388	     89.95437384	      0.00000000	      0.00000000	      9.68112418	     11.29759505	     16.01052248	     47.73538864	     89.95437384	      0.00000000	      0.00000000
      2.83000000	     -2.54025428	     -2.36730899	      6.76200380	      0.31658971	      0.88105758	     -1.01717627	     26.05378583	     -2.93601057	    -20.04734472	    -22.27165855	     -0.38871377	     -2.12045837	     -8.18512185	      4.72788386	     -1.30887172	      5.45248835	      6.78284314	    -29.69378002	     -0.51825423	     12.24880318	     -0.24529236	     -9.11212223	     -1.80737500	      0.76139312	     -9.22302761	     -1.93540691	     -6.61427071	    -12.06529145	     19.71218387	     89.95437384	      0.00000000	      0.00000000	      9.40962486	     11.23148214	     16.05757634	     47.43015339	     89.95437384	      0.00000000	      0.00000000
      2.84000000	     -2.68474449	     -2.27712578	      6.62235407	      0.32392831	      0.88127481	     -1.01526575	     26.00096463	     -2.88438295	    -19.69884930	    -22.72785544	     -0.39667591	     -2.14850532	     -7.94233520	      4.62359454	     -1.36276500	      5.43815722	      6.46042808	    -30.17983570	     -0.52673750	     11.80882788	     -0.12200300	     -8.88976178	     -1.51151671	      0.69001648	     -9.15227358	     -2.16551205	     -6.61750795	    -12.01160361	     20.00732599	     89.95437384	      0.00000000	      0.00000000	      8.98042061	     11.21824788	     16.06129117	     47.34625185	     89.95437384	      0.00000000	      0.00000000
      2.85000000	     -2.73414584	     -2.68069485	      6.52630363	      0.33103932	      0.88174632	     -1.01312084	     25.89261093	     -2.23325209	    -19.42240706	    -23.26985618	     -0.40613561	     -1.61033343	     -8.08456742	      4.50266287	     -1.30164954	      5.93330262	      5.77317049	    -30.89076790	     -0.53914561	     10.97753348	      0.89758358	     -8.56085393	     -1.26138882	      1.17881111	     -9.10641828	     -2.01130359	     -6.69545273	    -11.86715887	     19.62441761	     89.95437384	      0.00000000	      0.00000000	      8.78499078	     11.05680923	     16.26712143	     46.80961876	     89.95437384	      0.00000000	      0.00000000
      2.86000000	     -2.98526322	     -2.91039694	      6.53459986	      0.33800700	      0.88204911	     -1.01129815	     25.74868986	     -1.69127521	    -18.79373848	    -23.17509784	     -0.40448176	     -1.63285504	     -8.82851625	      4.74266882	     -0.86751980	      6.07340418	      4.70958132	    -31.90168532	     -0.55678945	     10.70657180	      3.28772294	     -8.17640146	     -0.83581109	      1.44461280	     -9.32180373	     -2.01358645	     -6.75187014	    -11.73999788	     19.64535080	     89.95437384	      0.00000000	      0.00000000	      8.30413213	     10.86850763	     16.76920699	     46.64341635	     89.95437384	      0.00000000	      0.00000000
      2.87000000	     -3.11443161	     -2.74597101	      6.29387194	      0.34554770	      0.88252364	     -1.00899099	     25.63652553	     -1.62064961	    -18.48973588	    -23.61342673	     -0.41213204	     -1.66966159	     -8.53568259	      4.63703472	     -0.90151388	      5.97381169	      4.36693014	    -32.44198058	     -0.56621938	     10.25773008	      3.22426001	     -7.97911781	     -0.54696071	      1.24274496	     -9.16510045	     -2.25057290	     -6.71149668	    -11.67725647	     19.99067767	     89.95437384	      0.00000000	      0.00000000	      7.77958624	     10.91168792	     16.76799674	     46.51564110	     89.95437384	      0.00000000	      0.00000000
      2.88000000	     -3.24325246	     -3.05198840	      6.23502152	      0.35233633	      0.88301622	     -1.00681432	     25.43793636	     -0.93996976	    -17.90095529	    -23.74286229	     -0.41439112	     -0.95548926	     -9.06422268	      4.69948529	     -0.37878350	      6.29600522	      3.50466228	    -33.75017054	     -0.58905160	      8.93420909	      5.16961320	     -7.52251032	     -0.27537036	      1.58884801	     -9.20150116	     -2.16077468	     -6.79030693	    -11.39630565	     19.90174500	     89.95437384	      0.00000000	      0.00000000	      7.53442471	     10.81394058	     16.94453552	     45.96633427	     89.95437384	      0.00000000	      0.00000000
      2.89000000	     -3.26973337	     -2.97834254	      5.99807682	      0.35929091	      0.88371829	     -1.00464281	     25.13293145	     -0.73319126	    -17.63103696	    -23.99117202	     -0.41872494	     -0.52911240	     -9.09566916	      4.61900235	     -0.11823374	      6.25027930	      3.06588483	    -34.89425224	     -0.60901959	      7.86801366	      5.73748882	     -7.22077542	     -0.16773480	      1.54425790	     -9.01834657	     -2.16284634	     -6.82077706	    -11.20394616	     20.00435315	     89.95437384	      0.00000000	      0.00000000	      7.21518084	     10.76205380	     16.97488028	     45.54997711	     89.95437384	      0.00000000	      0.00000000
      2.90000000	     -3.34545956	     -3.02640678	      5.85844113	      0.36632471	      0.88436784	     -1.00241795	     24.70864620	     -0.37850130	    -17.28963701	    -23.95556841	     -0.41810354	      0.03314885	     -9.06702870	      4.55352507	      0.33069417	      6.39772435	      2.69162452	    -36.18053072	     -0.63146939	      6.52865101	      6.78499407	     -6.83941260	      0.03129528	      1.59982205	     -9.02852843	     -2.17865902	     -6.83697478	    -10.95810623	     20.18511328	     89.95437384	      0.00000000	      0.00000000	      6.79905019	     10.75105041	     17.02489992	     45.10603140	     89.95437384	      0.00000000	      0.00000000
      2.91000000	     -3.45763944	     -3.12667555	      5.66581696	      0.37315186	      0.88498143	     -1.00008631	     24.30944112	      0.02133104	    -17.22399155	    -23.81453539	     -0.41564205	      0.38611193	     -9.02561313	      4.53977311	      0.92696773	      6.51701656	      2.15097505	    -37.60339082	     -0.65630298	      5.21613427	      7.86926877	     -6.44553318	      0.22505796	      1.70790882	     -8.85926479	     -2.24963565	     -6.91425922	    -10.62675433	     20.42059715	     89.95437384	      0.00000000	      0.00000000	      6.41391622	     10.66568726	     17.13053553	     44.79110216	     89.95437384	      0.00000000	      0.00000000
      2.92000000	     -3.44611066	     -3.01373178	      5.43598497	      0.37980408	      0.88574051	     -0.99777752	     23.78581298	      0.16760534	    -17.19876691	    -23.79773759	     -0.41534888	      0.82596811	     -8.77436990	      4.44945168	      1.49037590	      6.51773285	      1.98388937	    -39.17346470	     -0.68370594	      3.70561047	      8.46796503	     -6.07339651	      0.22980054	      1.59771030	     -8.69083084	     -2.23142125	     -6.94741795	    -10.34122452	     20.68483663	     89.95437384	      0.00000000	      0.00000000	      6.07551346	     10.67055672	     17.14718569	     44.40110031	     89.95437384	      0.00000000	      0.00000000
      2.93000000	     -3.47195179	     -3.07230952	      5.31160868	      0.38639214	      0.88643238	     -0.99550384	     23.21670100	      0.45674930	    -17.34176305	    -23.58898529	     -0.41170546	      1.33758674	     -8.38226537	      4.33905147	      2.29546493	      6.74310136	      1.83683620	    -40.93805918	     -0.71450392	      1.80834725	      9.24657583	     -5.62653236	      0.30598282	      1.66537593	     -8.61597880	     -2.21995876	     -6.99953159	    -10.00274960	     20.95224071	     89.95437384	      0.00000000	      0.00000000	      5.74518441	     10.64333841	     17.19374689	     43.90942158	     89.95437384	      0.00000000	      0.00000000
      2.94000000	     -3.49690519	     -3.13774800	      5.14348186	      0.39292856	      0.88704416	     -0.99325731	     22.68083535	      0.73594563	    -17.55355804	    -23.40924950	     -0.40856848	      1.74351098	     -7.91941227	      4.21552131	      3.15020403	      6.96115370	      1.70891678	    -42.75502788	     -0.74621601	     -0.10221857	      9.94918772	     -5.15817836	      0.37380945	      1.75666120	     -8.46748477	     -2.20451383	     -7.08881744	     -9.66179586	     21.22370283	     89.95437384	      0.00000000	      0.00000000	      5.41509842	     10.57606160	     17.22163815	     43.44991305	     89.95437384	      0.00000000	      0.00000000
